<svg xmlns="http://www.w3.org/2000/svg" width="256" height="256" viewBox="0 0 100 100"><rect width="100" height="100" rx="20" fill="#341aeb"></rect><path fill="#fff" d="M29.48 22.82L29.48 22.82Q29.93 22.64 30.88 22.41Q31.82 22.19 32.81 22.19L32.81 22.19Q36.77 22.19 36.77 25.52L36.77 25.52L36.77 64.04Q36.77 68.09 35.60 70.83Q34.43 73.58 32.41 75.25Q30.38 76.91 27.73 77.63Q25.07 78.35 22.19 78.35L22.19 78.35Q17.06 78.35 14.72 77.14Q12.38 75.92 12.38 73.94L12.38 73.94Q12.38 72.68 12.92 71.78Q13.46 70.88 13.91 70.43L13.91 70.43Q15.26 71.06 17.15 71.60Q19.04 72.14 21.11 72.14L21.11 72.14Q25.16 72.14 27.32 70.20Q29.48 68.27 29.48 63.68L29.48 63.68L29.48 22.82ZM67.91 72.41L67.91 72.41Q73.94 72.41 77.05 69.67Q80.15 66.92 80.15 62.60L80.15 62.60Q80.15 58.82 77.77 56.48Q75.38 54.14 70.25 52.61L70.25 52.61L62.42 50.27Q56.66 48.56 53.38 45.23Q50.09 41.90 50.09 36.23L50.09 36.23Q50.09 32.81 51.40 30.06Q52.70 27.32 55.13 25.43Q57.56 23.54 60.94 22.51Q64.31 21.47 68.54 21.47L68.54 21.47Q72.14 21.47 75.25 22.05Q78.35 22.64 80.65 23.68Q82.94 24.71 84.20 25.97Q85.46 27.23 85.46 28.58L85.46 28.58Q85.46 29.84 84.83 30.74Q84.20 31.64 83.21 32.18L83.21 32.18Q80.87 30.38 77.13 29.03Q73.40 27.68 68.81 27.68L68.81 27.68Q63.50 27.68 60.48 29.93Q57.47 32.18 57.47 36.23L57.47 36.23Q57.47 39.38 59.63 41.36Q61.79 43.34 66.83 44.78L66.83 44.78L72.32 46.40Q79.43 48.47 83.53 52.20Q87.62 55.94 87.62 62.60L87.62 62.60Q87.62 69.71 82.49 74.12Q77.36 78.53 67.91 78.53L67.91 78.53Q63.77 78.53 60.40 77.81Q57.02 77.09 54.64 75.92Q52.25 74.75 50.95 73.36Q49.64 71.96 49.64 70.61L49.64 70.61Q49.64 69.08 50.59 68.05Q51.53 67.01 52.79 66.56L52.79 66.56Q53.78 67.55 55.22 68.58Q56.66 69.62 58.55 70.47Q60.44 71.33 62.78 71.87Q65.12 72.41 67.91 72.41Z"></path></svg>